# xmcd
#
# Track frame offsets:
#	150
#	9314
#	19933
#	31763
#	41404
#	52757
#	65922
#	76478
#	90097
#	100228
#	111719
#	121259
#	134654
#	146346
#	155967
#	167616
#	180903
#	193540
#	203276
#	225150
#	235054
#	247806
#	259843
#	268929
#
# Disc length: 3729 seconds
#
# Revision: 1
# Processed by: cddbd v1.5.2PL0 Copyright (c) Steve Scherf et al.
# Submitted via: audiograbber 1.83.01
#
DISCID=320e8f18
DTITLE=Wiseman, Mac - Beside The Still Waters - Great Folk Ballads
DYEAR=2013
DGENRE=Folk - Gospel
TTITLE0=Beside The Still Waters
TTITLE1=How Great Thou Art
TTITLE2=Just A Closer Walk With Thee
TTITLE3=Standing Somewhere In The Shadows
TTITLE4=When God Dips His Love In My Heart
TTITLE5=Hold Fast To The Right
TTITLE6=Did You Stop To Pray This Morning?
TTITLE7=Whispering Hope
TTITLE8=Will There Be Any Stars in My Crown?
TTITLE9=Does Jesus Care
TTITLE10=It Is No Secret
TTITLE11=Each Ring Of The Hammer
TTITLE12=When It's Lamp Lightin' Time In The Valley
TTITLE13=Little Moses
TTITLE14=The Baggage Coach Ahead
TTITLE15=The Girl In The Blue Velvet Band
TTITLE16=I've Got No Use For The Women
TTITLE17=Jimmy Brown The Newsboy
TTITLE18=Barbara Allen
TTITLE19=The Preacher And The Bear
TTITLE20=Just Tell Them That You Saw Me
TTITLE21=The Wildwood Flower
TTITLE22=The Wreck Of The Old '97
TTITLE23=Driftwood On The River
EXTD=2 Stereo LPs\nBeside The Still Waters - 1958 (1 - 12]\nGreat Folk Ballads 
EXTD=1959 (13 - 24) 
EXTT0=
EXTT1=
EXTT2=
EXTT3=
EXTT4=
EXTT5=
EXTT6=
EXTT7=
EXTT8=
EXTT9=
EXTT10=
EXTT11=
EXTT12=
EXTT13=
EXTT14=
EXTT15=
EXTT16=
EXTT17=
EXTT18=
EXTT19=
EXTT20=
EXTT21=
EXTT22=
EXTT23=
PLAYORDER=
